<svg width="966" height="421" viewBox="0 0 966 421" fill="none" xmlns="http://www.w3.org/2000/svg">
<g clip-path="url(#clip0_1_710)">
<path d="M0 421.813L4.5 363.313L8 366.813L11.5 353.313L14.5 355.813L17 374.313L21.5 293.813L25 290.313L28 292.313L31 284.813L34.5 295.813L35.5 279.313L39.5 281.313L42.5 278.313L44 280.313L48.5 253.313L51 288.813L56.5 254.313L59 264.313L65 268.813L70 290.813L73 272.813L76 282.813L79 327.813L82.5 335.313L85.5 326.313L87 328.813H90L93.5 313.313L95.5 232.813L98.5 262.813L102 223.813L104 221.813L106.5 234.313L110 214.313L119.5 247.813L121 274.813L124.5 276.313L127 260.813L130 264.313L132.5 276.313L136 257.813L138 265.313L141 306.313H144.5L147.5 303.813H150L152.5 313.313L158 387.813L161.5 393.813L164.5 377.313L172 217.313L175 231.813L178.5 207.813L181 127.813L184 143.313L187 109.313L189 116.813L192 104.313L195 132.813L198 99.3135L200.5 126.813H203.5L206.5 110.313L209 137.813L212 132.813L215.5 99.3135L218 109.313L221 95.3135H223.5L229.5 116.813L232.5 104.313H235.5L240.5 112.813L243 111.313L246.5 99.8135L248.5 59.3135L252 43.3135L255 53.8135L256.5 39.3135L260.5 36.3135L263 41.3135H266L268.5 67.3135L272 39.3135L273.5 85.8135L279.5 134.813L283.5 115.813L286.5 124.313L289 126.813L291.5 101.813L294 97.8135L297 65.8135L303 72.8135H306L307.5 108.813L310.5 90.8135L314 79.3135L317.5 84.8135L320 63.3135L328 120.813L334.5 122.813L337 142.813L341.5 148.813L348.5 137.813L350.5 140.813L354.5 130.313L356.5 147.313L359 144.813L361.5 139.313L364.5 149.813L367.5 147.313L371 134.313L373.5 165.313L379.5 150.313L382.5 146.313L385 107.813L388.5 118.813L391 120.813L393 134.313L395 147.313L399 134.313L402 140.313L405 138.813L408 183.813L410 134.813L413.5 161.813L417 158.813L422 178.313H429.5L433.5 203.813L438.5 163.313L442.5 158.813L443.5 163.313L453 50.8135L456 54.8135L460 29.3135L463.5 37.8135L469 43.3135L469.5 30.3135L473 48.3135L484.5 32.3135L487 17.3135L494.5 53.8135L497.5 40.8135L504.5 46.3135L509.5 32.3135L511.5 40.8135L514.5 8.31348L518.5 41.8135L526.5 45.3135L529.5 56.3135L533.5 53.8135L534.5 58.3135L538 53.8135L540.5 57.3135L544 48.3135L546 75.8135L551.5 69.8135L555 73.8135L560.5 68.3135L566 74.8135L569.5 58.8135L572.5 75.8135L575 74.8135L580.5 79.3135L587 74.8135L589 57.3135L596 68.3135H601L602.5 73.8135L606.5 68.3135L612 89.3135L617 172.813L622 169.313L628.5 174.813L631 160.313L638.5 174.813L644.5 171.313L648 118.813L652 132.813L653.5 176.313L657 183.313L663.5 176.313L665 181.313L671 182.313L673.5 167.313L677 179.313H680.5L684.5 185.313" stroke="url(#paint0_linear_1_710)" stroke-width="2"/>
<circle cx="110" cy="216.313" r="3" fill="#FF6554"/>
<circle cx="110" cy="216.313" r="9" fill="url(#paint1_radial_1_710)" fill-opacity="0.4" stroke="#FF6554"/>
<path d="M132.895 218.64C132.895 220.404 131.285 221.453 129.213 221.453C126.89 221.453 125.462 220.306 125.462 218.598H126.722C126.722 219.676 127.604 220.39 129.255 220.39C130.529 220.39 131.635 219.76 131.635 218.64C131.635 217.646 131.005 217.198 129.871 217.002L128.248 216.694C126.512 216.386 125.672 215.42 125.672 214.035C125.672 212.383 127.1 211.291 129.185 211.291C131.243 211.291 132.727 212.313 132.727 214.147H131.481C131.481 212.999 130.613 212.341 129.129 212.341C127.912 212.341 126.918 212.915 126.918 213.993C126.918 214.93 127.506 215.378 128.639 215.588L130.263 215.882C132.041 216.204 132.895 217.184 132.895 218.64ZM141.118 217.59V218.094H135.435C135.463 219.662 136.485 220.474 137.759 220.474C138.71 220.474 139.508 220.012 139.858 219.088H141.034C140.628 220.502 139.41 221.439 137.731 221.439C135.645 221.439 134.259 219.97 134.259 217.758C134.259 215.546 135.645 214.091 137.717 214.091C139.76 214.091 141.118 215.49 141.118 217.59ZM137.717 215.028C136.527 215.028 135.589 215.756 135.449 217.24H139.942C139.858 215.77 138.906 215.028 137.717 215.028ZM143.983 211.011V221.313H142.835V211.011H143.983ZM147.127 211.011V221.313H145.979V211.011H147.127Z" fill="#FF6554"/>
<circle cx="273" cy="41.3135" r="3" fill="#FF6554"/>
<circle cx="273" cy="41.3135" r="9" fill="url(#paint2_radial_1_710)" fill-opacity="0.4" stroke="#FF6554"/>
<path d="M295.895 43.6399C295.895 45.4036 294.285 46.4535 292.213 46.4535C289.89 46.4535 288.462 45.3056 288.462 43.5979H289.722C289.722 44.6757 290.604 45.3896 292.255 45.3896C293.529 45.3896 294.635 44.7597 294.635 43.6399C294.635 42.646 294.005 42.1981 292.871 42.0021L291.248 41.6942C289.512 41.3862 288.672 40.4204 288.672 39.0346C288.672 37.3828 290.1 36.291 292.185 36.291C294.243 36.291 295.727 37.3129 295.727 39.1466H294.481C294.481 37.9987 293.613 37.3408 292.129 37.3408C290.912 37.3408 289.918 37.9148 289.918 38.9926C289.918 39.9305 290.506 40.3784 291.639 40.5884L293.263 40.8823C295.041 41.2043 295.895 42.1841 295.895 43.6399ZM304.118 42.59V43.094H298.435C298.463 44.6617 299.485 45.4736 300.759 45.4736C301.71 45.4736 302.508 45.0117 302.858 44.0878H304.034C303.628 45.5016 302.41 46.4395 300.731 46.4395C298.645 46.4395 297.259 44.9697 297.259 42.758C297.259 40.5464 298.645 39.0906 300.717 39.0906C302.76 39.0906 304.118 40.4904 304.118 42.59ZM300.717 40.0284C299.527 40.0284 298.589 40.7563 298.449 42.2401H302.942C302.858 40.7703 301.906 40.0284 300.717 40.0284ZM306.983 36.0111V46.3135H305.835V36.0111H306.983ZM310.127 36.0111V46.3135H308.979V36.0111H310.127Z" fill="#FF6554"/>
<circle cx="515" cy="9.31348" r="3" fill="#FF6554"/>
<circle cx="515" cy="9.31348" r="9" fill="url(#paint3_radial_1_710)" fill-opacity="0.4" stroke="#FF6554"/>
<path d="M537.895 11.6399C537.895 13.4036 536.285 14.4535 534.213 14.4535C531.89 14.4535 530.462 13.3056 530.462 11.5979H531.722C531.722 12.6757 532.604 13.3896 534.255 13.3896C535.529 13.3896 536.635 12.7597 536.635 11.6399C536.635 10.646 536.005 10.1981 534.871 10.0021L533.248 9.69418C531.512 9.38623 530.672 8.42038 530.672 7.03459C530.672 5.38284 532.1 4.29101 534.185 4.29101C536.243 4.29101 537.727 5.31285 537.727 7.14657H536.481C536.481 5.99875 535.613 5.34085 534.129 5.34085C532.912 5.34085 531.918 5.91476 531.918 6.9926C531.918 7.93045 532.506 8.37838 533.639 8.58835L535.263 8.88231C537.041 9.20426 537.895 10.1841 537.895 11.6399ZM546.118 10.59V11.094H540.435C540.463 12.6617 541.485 13.4736 542.759 13.4736C543.71 13.4736 544.508 13.0117 544.858 12.0878H546.034C545.628 13.5016 544.41 14.4395 542.731 14.4395C540.645 14.4395 539.259 12.9697 539.259 10.758C539.259 8.54636 540.645 7.09058 542.717 7.09058C544.76 7.09058 546.118 8.49037 546.118 10.59ZM542.717 8.02844C541.527 8.02844 540.589 8.75633 540.449 10.2401H544.942C544.858 8.77032 543.906 8.02844 542.717 8.02844ZM548.983 4.01105V14.3135H547.835V4.01105H548.983ZM552.127 4.01105V14.3135H550.979V4.01105H552.127Z" fill="#FF6554"/>
<circle cx="161" cy="393.313" r="3" fill="#58F28A"/>
<circle cx="161" cy="393.313" r="9" fill="url(#paint4_radial_1_710)" fill-opacity="0.4" stroke="#58F28A"/>
<path d="M182.943 393.19C184.035 393.526 184.679 394.436 184.679 395.612C184.679 397.25 183.475 398.313 181.487 398.313H177.078V388.431H181.137C183.167 388.431 184.329 389.453 184.329 390.993C184.329 391.86 183.937 392.728 182.943 393.19ZM183.111 391.133C183.111 390.139 182.425 389.509 181.095 389.509H178.282V392.756H181.263C182.397 392.756 183.111 392.154 183.111 391.133ZM181.333 397.236C182.719 397.236 183.419 396.578 183.419 395.528C183.419 394.45 182.705 393.778 181.445 393.778H178.282V397.236H181.333ZM191.147 391.231H192.253V398.313H191.259L191.147 397.264C190.727 398.034 189.943 398.453 188.963 398.453C187.241 398.453 186.206 397.278 186.206 395.472V391.231H187.325V395.29C187.325 396.732 188.095 397.418 189.187 397.404C190.461 397.404 191.147 396.466 191.147 395.108V391.231ZM194.665 391.231L196.988 397.544L199.13 391.217L200.348 391.231L197.38 399.461C196.876 400.833 196.106 401.113 195.071 401.113H193.671V400.077H195.085C195.813 400.077 196.26 399.685 196.26 398.887C196.26 398.691 196.218 398.495 196.134 398.271L193.419 391.231H194.665Z" fill="#58F28A"/>
<circle cx="434" cy="203.313" r="3" fill="#58F28A"/>
<circle cx="434" cy="203.313" r="9" fill="url(#paint5_radial_1_710)" fill-opacity="0.4" stroke="#58F28A"/>
<path d="M455.943 203.19C457.035 203.526 457.679 204.436 457.679 205.612C457.679 207.25 456.475 208.313 454.487 208.313H450.078V198.431H454.137C456.167 198.431 457.329 199.453 457.329 200.993C457.329 201.86 456.937 202.728 455.943 203.19ZM456.111 201.133C456.111 200.139 455.425 199.509 454.095 199.509H451.282V202.756H454.263C455.397 202.756 456.111 202.154 456.111 201.133ZM454.333 207.236C455.719 207.236 456.419 206.578 456.419 205.528C456.419 204.45 455.705 203.778 454.445 203.778H451.282V207.236H454.333ZM464.147 201.231H465.253V208.313H464.259L464.147 207.264C463.727 208.034 462.943 208.453 461.963 208.453C460.241 208.453 459.206 207.278 459.206 205.472V201.231H460.325V205.29C460.325 206.732 461.095 207.418 462.187 207.404C463.461 207.404 464.147 206.466 464.147 205.108V201.231ZM467.665 201.231L469.988 207.544L472.13 201.217L473.348 201.231L470.38 209.461C469.876 210.833 469.106 211.113 468.071 211.113H466.671V210.077H468.085C468.813 210.077 469.26 209.685 469.26 208.887C469.26 208.691 469.218 208.495 469.134 208.271L466.419 201.231H467.665Z" fill="#58F28A"/>
<path d="M39.904 39.5295C41.776 40.1055 42.88 41.6655 42.88 43.6815C42.88 46.4895 40.816 48.3135 37.408 48.3135H29.848V31.3695H36.808C40.288 31.3695 42.28 33.1215 42.28 35.7615C42.28 37.2495 41.608 38.7375 39.904 39.5295ZM40.192 36.0015C40.192 34.2975 39.016 33.2175 36.736 33.2175H31.912V38.7855H37.024C38.968 38.7855 40.192 37.7535 40.192 36.0015ZM37.144 46.4655C39.52 46.4655 40.72 45.3375 40.72 43.5375C40.72 41.6895 39.496 40.5375 37.336 40.5375H31.912V46.4655H37.144ZM51.7744 33.2655V48.3135H49.7344V33.2655H43.9504V31.3695H57.5584V33.2655H51.7744ZM66.3237 46.6095C68.8677 46.6095 70.6917 45.4815 71.6997 43.0095H73.9557C72.9477 46.3215 70.3077 48.5295 66.2997 48.5295C61.4997 48.5295 58.2837 45.0255 58.2837 39.9375C58.2837 34.8495 61.4757 31.1295 66.3477 31.1295C70.3077 31.1295 72.9717 33.2655 73.9557 36.6495H71.6997C70.7157 34.2015 68.8437 33.0495 66.3237 33.0495C62.6997 33.0495 60.4197 35.8815 60.4197 39.8655C60.4197 43.8735 62.6997 46.6095 66.3237 46.6095ZM78.7836 31.3695V41.9535C78.7836 44.9775 80.4876 46.6815 83.3916 46.6815C86.2716 46.6815 87.9756 44.9775 87.9756 41.9535V31.3695H90.0396V41.9535C90.0396 45.9615 87.4236 48.5535 83.3916 48.5535C79.3356 48.5535 76.7436 45.9855 76.7436 41.9535V31.3695H78.7836ZM105.286 43.7295C105.286 46.7535 102.526 48.5535 98.974 48.5535C94.99 48.5535 92.542 46.5855 92.542 43.6575H94.702C94.702 45.5055 96.214 46.7295 99.046 46.7295C101.23 46.7295 103.126 45.6495 103.126 43.7295C103.126 42.0255 102.046 41.2575 100.102 40.9215L97.318 40.3935C94.342 39.8655 92.902 38.2095 92.902 35.8335C92.902 33.0015 95.35 31.1295 98.926 31.1295C102.454 31.1295 104.998 32.8815 104.998 36.0255H102.862C102.862 34.0575 101.374 32.9295 98.83 32.9295C96.742 32.9295 95.038 33.9135 95.038 35.7615C95.038 37.3695 96.046 38.1375 97.99 38.4975L100.774 39.0015C103.822 39.5535 105.286 41.2335 105.286 43.7295ZM108.129 48.3135V31.3695H113.721C119.145 31.3695 122.193 34.8495 122.193 39.8415C122.193 44.8575 119.145 48.3135 113.721 48.3135H108.129ZM110.193 46.4175H113.865C117.729 46.3935 120.057 43.8015 120.057 39.8175C120.057 35.8095 117.729 33.2655 113.865 33.2655H110.193V46.4175ZM130.735 33.2655V48.3135H128.695V33.2655H122.911V31.3695H136.519V33.2655H130.735Z" fill="white"/>
</g>
<path d="M566 0.313477V420.313" stroke="url(#paint6_linear_1_710)"/>
<g clip-path="url(#clip1_1_710)">
<path d="M279 375.313L282 347.813L285 369.813L287 328.813L290.5 322.813L296.5 332.313L298 358.813L301.5 345.313L305 355.813L311.5 307.313L319.5 299.313L325.5 283.813V287.313L333 276.813L339.5 240.313L344 249.813L350.5 235.813L354 244.313L355.5 252.313L359 221.313L361.5 222.813L365 215.813H366.5L373.5 226.313L375.5 239.313L377.5 230.813L381 228.313L384 207.813L392.5 194.313L395 180.813L398 176.313L401 187.813H403.5L409.5 199.813L412 196.313L415 208.813H417.5L424.5 191.813L428.5 229.813L432 214.813L436 222.813L440 240.313L444.5 274.313L449 242.813L452 244.313L456 236.813L458.5 244.313L463.5 231.813L466.5 252.313L470 261.313L472.5 270.313L474.5 245.813L478.5 264.313L482 270.313L486 259.313L490 265.813L494 240.313L500.5 253.313L504 242.813H507L512 295.313L514.5 288.813H517.5L521 295.313H524L525.5 270.313L531 284.313L533 267.813L535.5 265.813L540 271.813L544.5 278.313L548.5 253.313L551.5 251.313L560.5 274.313L562.5 299.313L574 326.313L577.5 309.313L579.5 323.313L582.5 294.313L585 284.313L588 280.313L599 352.313L602 358.313H605.5L609 347.313L611.5 358.313L615.5 341.313L620.5 353.313L621.5 362.813L625 359.313L627.5 362.813L630.5 350.813L633.5 320.313L636.5 315.813L639 299.313L644.5 292.813L650 274.313L653.5 271.813L656 284.313L661.5 294.313H666.5L669.5 280.313L676 274.313L683.5 239.813L687 247.313L690 229.813L693 248.313L696 228.813H698.5L701 225.313L704 226.313L708 224.313L710.5 216.813L718.5 242.813L724.5 225.313L727 221.813L730.5 227.313L733 224.313L734 206.313L738 197.313L741 193.813L746 206.313L748 206.813L751.5 199.313L754 197.313L758.5 184.313L764.5 201.813L767 197.313L769.5 185.813L771.5 181.813L775 189.313L778 174.813L781 181.813L785.5 173.313L791 190.813L794.5 187.813L805.5 136.813L808.5 124.313L811.5 122.313L815 113.813L817.5 128.813L821 124.313L822.5 119.313L826.5 123.813L828.5 122.313L835.5 93.3135L843.5 73.3135L846 91.3135L849 96.8135H851.5L853.5 88.8135L856.5 98.8135H860L863 91.3135H867L870 124.313L874 113.813L877.5 105.313L879.5 107.313L883.5 102.313L888 119.313H892L895 116.313L900.5 132.313L904 122.313H906.5L909 118.313L915 135.813L919 127.813H922L925.5 136.813L929.5 111.813L937.5 103.313L941.5 86.3135" stroke="url(#paint7_linear_1_710)" stroke-width="2"/>
<circle cx="926" cy="138.313" r="3" fill="#58F28A"/>
<circle cx="926" cy="138.313" r="9" fill="url(#paint8_radial_1_710)" fill-opacity="0.4" stroke="#58F28A"/>
<path d="M947.943 138.19C949.035 138.526 949.679 139.436 949.679 140.612C949.679 142.25 948.475 143.313 946.487 143.313H942.078V133.431H946.137C948.167 133.431 949.329 134.453 949.329 135.993C949.329 136.86 948.937 137.728 947.943 138.19ZM948.111 136.133C948.111 135.139 947.425 134.509 946.095 134.509H943.282V137.756H946.263C947.397 137.756 948.111 137.154 948.111 136.133ZM946.333 142.236C947.719 142.236 948.419 141.578 948.419 140.528C948.419 139.45 947.705 138.778 946.445 138.778H943.282V142.236H946.333ZM956.147 136.231H957.253V143.313H956.259L956.147 142.264C955.727 143.034 954.943 143.453 953.963 143.453C952.241 143.453 951.206 142.278 951.206 140.472V136.231H952.325V140.29C952.325 141.732 953.095 142.418 954.187 142.404C955.461 142.404 956.147 141.466 956.147 140.108V136.231ZM959.665 136.231L961.988 142.544L964.13 136.217L965.348 136.231L962.38 144.461C961.876 145.833 961.106 146.113 960.071 146.113H958.671V145.077H960.085C960.813 145.077 961.26 144.685 961.26 143.887C961.26 143.691 961.218 143.495 961.134 143.271L958.419 136.231H959.665Z" fill="#58F28A"/>
<circle cx="842" cy="73.3135" r="3" fill="#FF6554"/>
<circle cx="842" cy="73.3135" r="9" fill="url(#paint9_radial_1_710)" fill-opacity="0.4" stroke="#FF6554"/>
<path d="M864.895 75.6399C864.895 77.4036 863.285 78.4535 861.213 78.4535C858.89 78.4535 857.462 77.3056 857.462 75.5979H858.722C858.722 76.6757 859.604 77.3896 861.255 77.3896C862.529 77.3896 863.635 76.7597 863.635 75.6399C863.635 74.646 863.005 74.1981 861.871 74.0021L860.248 73.6942C858.512 73.3862 857.672 72.4204 857.672 71.0346C857.672 69.3828 859.1 68.291 861.185 68.291C863.243 68.291 864.727 69.3129 864.727 71.1466H863.481C863.481 69.9987 862.613 69.3408 861.129 69.3408C859.912 69.3408 858.918 69.9148 858.918 70.9926C858.918 71.9305 859.506 72.3784 860.639 72.5884L862.263 72.8823C864.041 73.2043 864.895 74.1841 864.895 75.6399ZM873.118 74.59V75.094H867.435C867.463 76.6617 868.485 77.4736 869.759 77.4736C870.71 77.4736 871.508 77.0117 871.858 76.0878H873.034C872.628 77.5016 871.41 78.4395 869.731 78.4395C867.645 78.4395 866.259 76.9697 866.259 74.758C866.259 72.5464 867.645 71.0906 869.717 71.0906C871.76 71.0906 873.118 72.4904 873.118 74.59ZM869.717 72.0284C868.527 72.0284 867.589 72.7563 867.449 74.2401H871.942C871.858 72.7703 870.906 72.0284 869.717 72.0284ZM875.983 68.0111V78.3135H874.835V68.0111H875.983ZM879.127 68.0111V78.3135H877.979V68.0111H879.127Z" fill="#FF6554"/>
<circle cx="629" cy="364.313" r="3" fill="#58F28A"/>
<circle cx="629" cy="364.313" r="9" fill="url(#paint10_radial_1_710)" fill-opacity="0.4" stroke="#58F28A"/>
<path d="M650.943 364.19C652.035 364.526 652.679 365.436 652.679 366.612C652.679 368.25 651.475 369.313 649.487 369.313H645.078V359.431H649.137C651.167 359.431 652.329 360.453 652.329 361.993C652.329 362.86 651.937 363.728 650.943 364.19ZM651.111 362.133C651.111 361.139 650.425 360.509 649.095 360.509H646.282V363.756H649.263C650.397 363.756 651.111 363.154 651.111 362.133ZM649.333 368.236C650.719 368.236 651.419 367.578 651.419 366.528C651.419 365.45 650.705 364.778 649.445 364.778H646.282V368.236H649.333ZM659.147 362.231H660.253V369.313H659.259L659.147 368.264C658.727 369.034 657.943 369.453 656.963 369.453C655.241 369.453 654.206 368.278 654.206 366.472V362.231H655.325V366.29C655.325 367.732 656.095 368.418 657.187 368.404C658.461 368.404 659.147 367.466 659.147 366.108V362.231ZM662.665 362.231L664.988 368.544L667.13 362.217L668.348 362.231L665.38 370.461C664.876 371.833 664.106 372.113 663.071 372.113H661.671V371.077H663.085C663.813 371.077 664.26 370.685 664.26 369.887C664.26 369.691 664.218 369.495 664.134 369.271L661.419 362.231H662.665Z" fill="#58F28A"/>
<path d="M870.426 379.313V362.369H872.61L881.754 376.073V362.369H883.746V379.313H881.61L872.442 365.681V379.313H870.426ZM889.506 362.369V379.313H887.442V362.369H889.506ZM904.247 364.265H895.271V370.097H903.263V371.945H895.271V379.313H893.207V362.369H904.247V364.265ZM913.446 364.265V379.313H911.406V364.265H905.622V362.369H919.23V364.265H913.446ZM926.365 373.529L920.077 362.369H922.573L927.421 371.345L932.293 362.369H934.741L928.405 373.529V379.313H926.365V373.529Z" fill="white"/>
</g>
<defs>
<linearGradient id="paint0_linear_1_710" x1="684" y1="-66.6865" x2="4.07066e-05" y2="509.813" gradientUnits="userSpaceOnUse">
<stop stop-color="#D4F938"/>
<stop offset="1" stop-color="#33B568"/>
</linearGradient>
<radialGradient id="paint1_radial_1_710" cx="0" cy="0" r="1" gradientUnits="userSpaceOnUse" gradientTransform="translate(110 216.313) rotate(90) scale(10.5)">
<stop stop-color="#FF6554"/>
<stop offset="1" stop-color="#FF6554" stop-opacity="0"/>
</radialGradient>
<radialGradient id="paint2_radial_1_710" cx="0" cy="0" r="1" gradientUnits="userSpaceOnUse" gradientTransform="translate(273 41.3135) rotate(90) scale(10.5)">
<stop stop-color="#FF6554"/>
<stop offset="1" stop-color="#FF6554" stop-opacity="0"/>
</radialGradient>
<radialGradient id="paint3_radial_1_710" cx="0" cy="0" r="1" gradientUnits="userSpaceOnUse" gradientTransform="translate(515 9.31348) rotate(90) scale(10.5)">
<stop stop-color="#FF6554"/>
<stop offset="1" stop-color="#FF6554" stop-opacity="0"/>
</radialGradient>
<radialGradient id="paint4_radial_1_710" cx="0" cy="0" r="1" gradientUnits="userSpaceOnUse" gradientTransform="translate(161 393.313) rotate(90) scale(10.5)">
<stop stop-color="#E2FF6F"/>
<stop offset="1" stop-color="#E2FF6F" stop-opacity="0"/>
</radialGradient>
<radialGradient id="paint5_radial_1_710" cx="0" cy="0" r="1" gradientUnits="userSpaceOnUse" gradientTransform="translate(434 203.313) rotate(90) scale(10.5)">
<stop stop-color="#E2FF6F"/>
<stop offset="1" stop-color="#E2FF6F" stop-opacity="0"/>
</radialGradient>
<linearGradient id="paint6_linear_1_710" x1="566" y1="0.313455" x2="564.774" y2="0.317033" gradientUnits="userSpaceOnUse">
<stop stop-color="white" stop-opacity="0"/>
<stop offset="0.505208" stop-color="white"/>
<stop offset="1" stop-color="white" stop-opacity="0"/>
</linearGradient>
<linearGradient id="paint7_linear_1_710" x1="941.016" y1="18.5372" x2="437.219" y2="581.241" gradientUnits="userSpaceOnUse">
<stop stop-color="#D4F938"/>
<stop offset="1" stop-color="#33B568"/>
</linearGradient>
<radialGradient id="paint8_radial_1_710" cx="0" cy="0" r="1" gradientUnits="userSpaceOnUse" gradientTransform="translate(926 138.313) rotate(90) scale(10.5)">
<stop stop-color="#E2FF6F"/>
<stop offset="1" stop-color="#E2FF6F" stop-opacity="0"/>
</radialGradient>
<radialGradient id="paint9_radial_1_710" cx="0" cy="0" r="1" gradientUnits="userSpaceOnUse" gradientTransform="translate(842 73.3135) rotate(90) scale(10.5)">
<stop stop-color="#FF6554"/>
<stop offset="1" stop-color="#FF6554" stop-opacity="0"/>
</radialGradient>
<radialGradient id="paint10_radial_1_710" cx="0" cy="0" r="1" gradientUnits="userSpaceOnUse" gradientTransform="translate(629 364.313) rotate(90) scale(10.5)">
<stop stop-color="#E2FF6F"/>
<stop offset="1" stop-color="#E2FF6F" stop-opacity="0"/>
</radialGradient>
<clipPath id="clip0_1_710">
<rect width="566" height="420" fill="white" transform="translate(0 0.313477)"/>
</clipPath>
<clipPath id="clip1_1_710">
<rect width="400" height="420" fill="white" transform="translate(566 0.313477)"/>
</clipPath>
</defs>
</svg>
